<svg xmlns="http://www.w3.org/2000/svg" viewBox="0 0 1254 1254" width="1254" height="1254" role="img" aria-label="Monochrome camera illustration">
  <title>Monochrome camera illustration</title>
  <path d="M 658.0 547.0 L 634.0 551.0 L 603.0 563.0 L 573.0 583.0 L 552.0 605.0 L 540.0 623.0 L 526.0 655.0 L 520.0 683.0 L 520.0 717.0 L 529.0 754.0 L 541.0 779.0 L 557.0 801.0 L 578.0 821.0 L 597.0 834.0 L 613.0 842.0 L 633.0 849.0 L 666.0 854.0 L 691.0 853.0 L 724.0 845.0 L 751.0 832.0 L 778.0 811.0 L 794.0 793.0 L 805.0 776.0 L 819.0 743.0 L 825.0 710.0 L 824.0 680.0 L 814.0 642.0 L 804.0 622.0 L 790.0 602.0 L 768.0 580.0 L 742.0 563.0 L 714.0 552.0 L 688.0 547.0 Z M 735.0 723.0 L 742.0 723.0 L 751.0 726.0 L 760.0 734.0 L 764.0 742.0 L 765.0 751.0 L 761.0 763.0 L 752.0 772.0 L 745.0 775.0 L 732.0 775.0 L 725.0 772.0 L 716.0 763.0 L 713.0 756.0 L 713.0 744.0 L 716.0 736.0 L 722.0 729.0 Z M 697.0 581.0 L 698.0 582.0 L 678.0 617.0 L 658.0 620.0 L 640.0 627.0 L 627.0 635.0 L 612.0 648.0 L 600.0 664.0 L 592.0 680.0 L 586.0 702.0 L 585.0 722.0 L 555.0 734.0 L 550.0 715.0 L 550.0 686.0 L 552.0 675.0 L 562.0 646.0 L 579.0 620.0 L 591.0 608.0 L 607.0 596.0 L 624.0 587.0 L 639.0 582.0 L 666.0 578.0 Z M 671.0 519.0 L 636.0 523.0 L 604.0 533.0 L 571.0 551.0 L 545.0 573.0 L 520.0 605.0 L 506.0 633.0 L 496.0 667.0 L 493.0 707.0 L 498.0 742.0 L 508.0 771.0 L 528.0 806.0 L 554.0 835.0 L 578.0 853.0 L 610.0 869.0 L 644.0 878.0 L 683.0 880.0 L 711.0 876.0 L 742.0 866.0 L 771.0 850.0 L 790.0 835.0 L 804.0 821.0 L 826.0 791.0 L 842.0 756.0 L 850.0 721.0 L 851.0 688.0 L 844.0 649.0 L 835.0 625.0 L 817.0 594.0 L 791.0 565.0 L 766.0 546.0 L 734.0 530.0 L 705.0 522.0 Z M 656.0 528.0 L 689.0 528.0 L 724.0 535.0 L 756.0 549.0 L 783.0 568.0 L 802.0 587.0 L 820.0 612.0 L 835.0 645.0 L 843.0 683.0 L 843.0 717.0 L 836.0 751.0 L 822.0 783.0 L 804.0 810.0 L 780.0 834.0 L 750.0 854.0 L 717.0 867.0 L 689.0 872.0 L 656.0 872.0 L 621.0 865.0 L 589.0 851.0 L 567.0 836.0 L 545.0 815.0 L 524.0 786.0 L 515.0 768.0 L 507.0 746.0 L 501.0 714.0 L 501.0 685.0 L 509.0 647.0 L 521.0 619.0 L 540.0 590.0 L 564.0 566.0 L 587.0 550.0 L 618.0 536.0 Z M 1155.0 511.0 L 1150.0 513.0 L 1144.0 519.0 L 1142.0 523.0 L 1142.0 533.0 L 1146.0 540.0 L 1154.0 545.0 L 1162.0 545.0 L 1167.0 543.0 L 1173.0 537.0 L 1175.0 533.0 L 1175.0 523.0 L 1167.0 513.0 Z M 1155.0 519.0 L 1161.0 519.0 L 1167.0 524.0 L 1167.0 532.0 L 1162.0 537.0 L 1155.0 537.0 L 1150.0 532.0 L 1150.0 524.0 Z M 91.0 511.0 L 82.0 516.0 L 78.0 523.0 L 77.0 529.0 L 81.0 539.0 L 84.0 542.0 L 91.0 545.0 L 98.0 545.0 L 103.0 543.0 L 109.0 537.0 L 111.0 532.0 L 111.0 524.0 L 104.0 514.0 L 97.0 511.0 Z M 91.0 519.0 L 97.0 519.0 L 103.0 525.0 L 103.0 532.0 L 97.0 537.0 L 91.0 537.0 L 85.0 530.0 L 87.0 522.0 Z M 655.0 466.0 L 627.0 470.0 L 604.0 476.0 L 560.0 495.0 L 524.0 520.0 L 500.0 544.0 L 473.0 582.0 L 453.0 626.0 L 446.0 652.0 L 442.0 678.0 L 442.0 720.0 L 451.0 766.0 L 470.0 811.0 L 494.0 847.0 L 524.0 878.0 L 556.0 901.0 L 596.0 920.0 L 623.0 928.0 L 645.0 932.0 L 689.0 933.0 L 712.0 930.0 L 737.0 924.0 L 761.0 915.0 L 783.0 904.0 L 805.0 890.0 L 824.0 875.0 L 850.0 848.0 L 875.0 810.0 L 890.0 776.0 L 898.0 747.0 L 902.0 722.0 L 902.0 675.0 L 898.0 649.0 L 892.0 627.0 L 873.0 584.0 L 849.0 549.0 L 818.0 518.0 L 781.0 493.0 L 758.0 482.0 L 738.0 475.0 L 700.0 467.0 Z M 657.0 474.0 L 698.0 475.0 L 740.0 484.0 L 779.0 501.0 L 816.0 527.0 L 842.0 553.0 L 867.0 589.0 L 877.0 609.0 L 886.0 634.0 L 892.0 659.0 L 895.0 683.0 L 894.0 724.0 L 886.0 762.0 L 878.0 785.0 L 869.0 804.0 L 843.0 843.0 L 812.0 874.0 L 772.0 901.0 L 736.0 916.0 L 706.0 923.0 L 689.0 925.0 L 657.0 925.0 L 619.0 919.0 L 594.0 911.0 L 555.0 891.0 L 527.0 870.0 L 501.0 843.0 L 483.0 818.0 L 470.0 794.0 L 457.0 759.0 L 451.0 731.0 L 449.0 710.0 L 451.0 667.0 L 456.0 643.0 L 463.0 621.0 L 482.0 582.0 L 507.0 548.0 L 541.0 517.0 L 564.0 502.0 L 584.0 492.0 L 602.0 485.0 L 628.0 478.0 Z M 370.0 418.0 L 360.0 422.0 L 355.0 427.0 L 351.0 435.0 L 351.0 448.0 L 356.0 457.0 L 361.0 461.0 L 368.0 464.0 L 378.0 464.0 L 390.0 457.0 L 395.0 448.0 L 396.0 439.0 L 392.0 428.0 L 386.0 422.0 L 377.0 418.0 Z M 370.0 426.0 L 379.0 427.0 L 385.0 432.0 L 388.0 438.0 L 388.0 445.0 L 386.0 449.0 L 377.0 456.0 L 369.0 456.0 L 365.0 454.0 L 360.0 449.0 L 358.0 439.0 L 362.0 431.0 Z M 936.0 421.0 L 936.0 468.0 L 940.0 476.0 L 949.0 483.0 L 1059.0 484.0 L 1068.0 480.0 L 1075.0 471.0 L 1076.0 421.0 L 1072.0 413.0 L 1062.0 406.0 L 954.0 405.0 L 946.0 408.0 L 939.0 415.0 Z M 945.0 423.0 L 952.0 415.0 L 955.0 414.0 L 1058.0 414.0 L 1064.0 418.0 L 1068.0 427.0 L 1067.0 467.0 L 1058.0 475.0 L 954.0 475.0 L 949.0 472.0 L 945.0 466.0 Z M 166.0 327.0 L 165.0 367.0 L 163.0 369.0 L 147.0 371.0 L 133.0 379.0 L 124.0 389.0 L 118.0 403.0 L 117.0 488.0 L 92.0 489.0 L 81.0 493.0 L 69.0 503.0 L 61.0 520.0 L 62.0 540.0 L 68.0 552.0 L 76.0 560.0 L 93.0 567.0 L 117.0 568.0 L 117.0 974.0 L 119.0 987.0 L 125.0 1001.0 L 129.0 1007.0 L 143.0 1020.0 L 155.0 1026.0 L 167.0 1029.0 L 1083.0 1029.0 L 1099.0 1025.0 L 1108.0 1020.0 L 1124.0 1004.0 L 1130.0 993.0 L 1134.0 979.0 L 1135.0 568.0 L 1161.0 567.0 L 1179.0 558.0 L 1190.0 542.0 L 1192.0 534.0 L 1192.0 521.0 L 1184.0 503.0 L 1172.0 493.0 L 1161.0 489.0 L 1135.0 488.0 L 1134.0 405.0 L 1128.0 389.0 L 1115.0 376.0 L 1098.0 369.0 L 896.0 369.0 L 889.0 367.0 L 875.0 355.0 L 827.0 255.0 L 813.0 243.0 L 802.0 239.0 L 769.0 239.0 L 768.0 218.0 L 762.0 213.0 L 729.0 213.0 L 725.0 216.0 L 725.0 224.0 L 723.0 226.0 L 634.0 226.0 L 633.0 217.0 L 629.0 213.0 L 593.0 214.0 L 590.0 219.0 L 589.0 239.0 L 554.0 240.0 L 543.0 245.0 L 533.0 254.0 L 482.0 356.0 L 473.0 365.0 L 461.0 369.0 L 448.0 369.0 L 446.0 367.0 L 445.0 338.0 L 436.0 328.0 L 425.0 325.0 L 369.0 324.0 L 347.0 327.0 L 341.0 330.0 L 335.0 338.0 L 333.0 361.0 L 334.0 367.0 L 332.0 369.0 L 311.0 368.0 L 311.0 330.0 L 306.0 324.0 L 299.0 321.0 L 272.0 318.0 L 205.0 318.0 L 181.0 320.0 L 173.0 322.0 Z M 128.0 982.0 L 1122.0 981.0 L 1123.0 983.0 L 1118.0 995.0 L 1105.0 1010.0 L 1095.0 1016.0 L 1085.0 1019.0 L 166.0 1019.0 L 156.0 1016.0 L 146.0 1010.0 L 133.0 995.0 Z M 875.0 505.0 L 1125.0 506.0 L 1125.0 971.0 L 1123.0 973.0 L 737.0 972.0 L 764.0 964.0 L 803.0 946.0 L 828.0 930.0 L 851.0 912.0 L 883.0 879.0 L 907.0 845.0 L 925.0 811.0 L 939.0 773.0 L 946.0 742.0 L 949.0 711.0 L 948.0 668.0 L 943.0 637.0 L 931.0 597.0 L 913.0 559.0 L 897.0 534.0 L 874.0 506.0 Z M 126.0 506.0 L 470.0 505.0 L 471.0 507.0 L 449.0 533.0 L 431.0 561.0 L 412.0 602.0 L 401.0 639.0 L 395.0 681.0 L 395.0 717.0 L 399.0 749.0 L 406.0 778.0 L 419.0 813.0 L 437.0 847.0 L 461.0 880.0 L 488.0 908.0 L 514.0 929.0 L 541.0 946.0 L 580.0 964.0 L 607.0 972.0 L 129.0 973.0 L 126.0 969.0 Z M 1136.0 498.0 L 1164.0 500.0 L 1172.0 505.0 L 1179.0 513.0 L 1182.0 521.0 L 1182.0 535.0 L 1175.0 548.0 L 1166.0 555.0 L 1160.0 557.0 L 1134.0 556.0 L 1134.0 500.0 Z M 116.0 498.0 L 117.0 556.0 L 92.0 557.0 L 85.0 554.0 L 76.0 546.0 L 71.0 536.0 L 70.0 524.0 L 74.0 513.0 L 82.0 504.0 L 89.0 500.0 Z M 663.0 427.0 L 714.0 430.0 L 745.0 437.0 L 766.0 444.0 L 813.0 468.0 L 854.0 500.0 L 874.0 521.0 L 891.0 543.0 L 911.0 577.0 L 930.0 626.0 L 936.0 654.0 L 939.0 682.0 L 937.0 733.0 L 933.0 756.0 L 924.0 787.0 L 916.0 807.0 L 900.0 838.0 L 868.0 881.0 L 848.0 901.0 L 818.0 925.0 L 777.0 948.0 L 730.0 964.0 L 688.0 970.0 L 657.0 970.0 L 630.0 967.0 L 585.0 955.0 L 561.0 945.0 L 537.0 932.0 L 500.0 905.0 L 465.0 869.0 L 438.0 829.0 L 425.0 802.0 L 416.0 777.0 L 409.0 749.0 L 405.0 720.0 L 406.0 666.0 L 411.0 638.0 L 420.0 608.0 L 441.0 563.0 L 456.0 540.0 L 485.0 506.0 L 509.0 485.0 L 533.0 468.0 L 556.0 455.0 L 584.0 443.0 L 606.0 436.0 L 634.0 430.0 Z M 230.0 344.0 L 245.0 345.0 L 244.0 381.0 L 229.0 380.0 Z M 212.0 344.0 L 224.0 345.0 L 223.0 380.0 L 211.0 379.0 Z M 262.0 343.0 L 263.0 378.0 L 260.0 380.0 L 251.0 380.0 L 250.0 345.0 Z M 198.0 343.0 L 206.0 344.0 L 205.0 379.0 L 197.0 377.0 Z M 275.0 342.0 L 276.0 377.0 L 269.0 379.0 L 268.0 344.0 Z M 288.0 341.0 L 289.0 375.0 L 282.0 377.0 L 281.0 343.0 L 283.0 341.0 Z M 187.0 341.0 L 193.0 343.0 L 192.0 377.0 L 186.0 375.0 Z M 300.0 339.0 L 301.0 371.0 L 294.0 374.0 L 293.0 341.0 Z M 175.0 339.0 L 181.0 341.0 L 180.0 374.0 L 174.0 371.0 Z M 342.0 343.0 L 348.0 336.0 L 355.0 334.0 L 414.0 333.0 L 430.0 335.0 L 438.0 343.0 L 438.0 368.0 L 343.0 369.0 Z M 177.0 331.0 L 191.0 328.0 L 214.0 327.0 L 291.0 329.0 L 294.0 331.0 L 279.0 334.0 L 242.0 337.0 L 195.0 335.0 Z M 126.0 410.0 L 131.0 396.0 L 141.0 385.0 L 159.0 378.0 L 165.0 378.0 L 174.0 383.0 L 195.0 388.0 L 246.0 391.0 L 289.0 386.0 L 303.0 382.0 L 310.0 378.0 L 466.0 378.0 L 473.0 376.0 L 483.0 370.0 L 490.0 362.0 L 537.0 265.0 L 546.0 255.0 L 558.0 249.0 L 796.0 248.0 L 810.0 253.0 L 821.0 264.0 L 867.0 361.0 L 875.0 370.0 L 885.0 376.0 L 891.0 378.0 L 1091.0 378.0 L 1098.0 379.0 L 1109.0 384.0 L 1119.0 394.0 L 1125.0 409.0 L 1125.0 496.0 L 865.0 497.0 L 842.0 476.0 L 815.0 457.0 L 771.0 435.0 L 721.0 421.0 L 698.0 418.0 L 664.0 417.0 L 613.0 424.0 L 565.0 440.0 L 539.0 453.0 L 515.0 468.0 L 480.0 497.0 L 127.0 497.0 Z M 599.0 223.0 L 623.0 222.0 L 626.0 234.0 L 732.0 234.0 L 734.0 231.0 L 735.0 222.0 L 758.0 222.0 L 759.0 238.0 L 600.0 239.0 Z" fill="#000000" fill-rule="evenodd"/>
</svg>
