<svg xmlns="http://www.w3.org/2000/svg" viewBox="0 0 1254 1254" width="1254" height="1254" role="img">
  <path d="M 461.0 955.0 L 461.0 963.0 L 466.0 968.0 L 468.0 968.0 L 469.0 969.0 L 775.0 969.0 L 776.0 968.0 L 778.0 968.0 L 782.0 964.0 L 783.0 962.0 L 783.0 955.0 L 782.0 954.0 L 782.0 951.0 L 781.0 950.0 L 781.0 948.0 L 779.0 944.0 L 779.0 941.0 L 777.0 937.0 L 777.0 934.0 L 776.0 933.0 L 776.0 931.0 L 774.0 927.0 L 774.0 924.0 L 772.0 920.0 L 771.0 913.0 L 769.0 909.0 L 764.0 905.0 L 762.0 905.0 L 761.0 904.0 L 754.0 904.0 L 753.0 903.0 L 736.0 903.0 L 735.0 904.0 L 706.0 904.0 L 705.0 903.0 L 700.0 903.0 L 699.0 904.0 L 659.0 904.0 L 658.0 903.0 L 650.0 903.0 L 649.0 904.0 L 609.0 904.0 L 608.0 903.0 L 605.0 903.0 L 604.0 904.0 L 484.0 904.0 L 480.0 906.0 L 475.0 911.0 L 475.0 913.0 L 474.0 914.0 L 474.0 916.0 L 473.0 917.0 L 473.0 919.0 L 472.0 920.0 L 472.0 922.0 L 471.0 923.0 L 471.0 925.0 L 470.0 926.0 L 470.0 928.0 L 469.0 929.0 L 469.0 931.0 L 467.0 935.0 L 467.0 938.0 L 466.0 939.0 L 466.0 941.0 L 465.0 942.0 L 465.0 944.0 L 464.0 945.0 L 464.0 947.0 L 462.0 951.0 L 462.0 954.0 Z M 471.0 955.0 L 472.0 954.0 L 472.0 952.0 L 473.0 951.0 L 473.0 949.0 L 474.0 948.0 L 474.0 946.0 L 475.0 945.0 L 475.0 943.0 L 476.0 942.0 L 476.0 940.0 L 477.0 939.0 L 477.0 936.0 L 478.0 935.0 L 478.0 933.0 L 479.0 932.0 L 479.0 930.0 L 480.0 929.0 L 480.0 927.0 L 481.0 926.0 L 481.0 923.0 L 482.0 922.0 L 483.0 917.0 L 486.0 914.0 L 488.0 914.0 L 489.0 913.0 L 757.0 913.0 L 758.0 914.0 L 759.0 914.0 L 762.0 917.0 L 762.0 920.0 L 763.0 921.0 L 763.0 923.0 L 764.0 924.0 L 764.0 927.0 L 765.0 928.0 L 765.0 930.0 L 766.0 931.0 L 766.0 933.0 L 767.0 934.0 L 767.0 937.0 L 768.0 938.0 L 768.0 941.0 L 769.0 942.0 L 769.0 944.0 L 770.0 945.0 L 770.0 947.0 L 771.0 948.0 L 771.0 951.0 L 772.0 952.0 L 772.0 956.0 L 773.0 957.0 L 771.0 959.0 L 472.0 959.0 L 471.0 958.0 Z M 1059.0 874.0 L 1009.0 790.0 L 1003.0 784.0 L 998.0 782.0 L 285.0 784.0 L 252.0 786.0 L 246.0 791.0 L 196.0 872.0 L 194.0 879.0 L 195.0 882.0 L 201.0 887.0 L 1053.0 887.0 L 1059.0 881.0 Z M 206.0 876.0 L 209.0 869.0 L 211.0 867.0 L 212.0 864.0 L 214.0 862.0 L 214.0 861.0 L 216.0 859.0 L 217.0 856.0 L 219.0 854.0 L 286.0 854.0 L 287.0 855.0 L 287.0 857.0 L 286.0 858.0 L 286.0 859.0 L 284.0 861.0 L 284.0 862.0 L 283.0 863.0 L 282.0 866.0 L 280.0 868.0 L 277.0 875.0 L 275.0 877.0 L 207.0 877.0 Z M 370.0 875.0 L 374.0 868.0 L 374.0 866.0 L 378.0 859.0 L 378.0 857.0 L 379.0 856.0 L 379.0 855.0 L 382.0 853.0 L 452.0 853.0 L 454.0 855.0 L 454.0 857.0 L 453.0 858.0 L 453.0 860.0 L 452.0 861.0 L 452.0 864.0 L 451.0 865.0 L 451.0 867.0 L 450.0 868.0 L 450.0 870.0 L 449.0 871.0 L 449.0 874.0 L 446.0 877.0 L 372.0 877.0 Z M 287.0 875.0 L 288.0 874.0 L 289.0 871.0 L 291.0 869.0 L 294.0 862.0 L 296.0 860.0 L 298.0 855.0 L 301.0 853.0 L 308.0 853.0 L 309.0 854.0 L 310.0 854.0 L 311.0 853.0 L 367.0 853.0 L 369.0 855.0 L 369.0 856.0 L 366.0 861.0 L 366.0 863.0 L 365.0 864.0 L 365.0 865.0 L 364.0 866.0 L 364.0 867.0 L 363.0 868.0 L 360.0 875.0 L 358.0 877.0 L 289.0 877.0 Z M 970.0 853.0 L 971.0 852.0 L 1034.0 852.0 L 1036.0 854.0 L 1037.0 857.0 L 1039.0 859.0 L 1040.0 862.0 L 1042.0 864.0 L 1043.0 867.0 L 1045.0 869.0 L 1048.0 876.0 L 1047.0 877.0 L 983.0 877.0 L 979.0 873.0 L 979.0 872.0 L 978.0 871.0 L 975.0 864.0 L 973.0 862.0 L 973.0 861.0 L 970.0 856.0 Z M 889.0 853.0 L 890.0 852.0 L 957.0 852.0 L 959.0 854.0 L 959.0 855.0 L 960.0 856.0 L 963.0 863.0 L 965.0 865.0 L 965.0 866.0 L 970.0 875.0 L 968.0 877.0 L 899.0 877.0 L 897.0 875.0 L 897.0 873.0 L 895.0 870.0 L 895.0 868.0 L 890.0 859.0 L 890.0 857.0 L 889.0 856.0 Z M 803.0 854.0 L 805.0 852.0 L 806.0 853.0 L 815.0 853.0 L 816.0 852.0 L 876.0 852.0 L 879.0 855.0 L 879.0 856.0 L 880.0 857.0 L 880.0 859.0 L 883.0 864.0 L 883.0 866.0 L 885.0 869.0 L 885.0 871.0 L 886.0 872.0 L 886.0 874.0 L 887.0 875.0 L 885.0 877.0 L 811.0 877.0 L 809.0 875.0 L 809.0 873.0 L 808.0 872.0 L 808.0 870.0 L 807.0 869.0 L 807.0 867.0 L 806.0 866.0 L 806.0 863.0 L 805.0 862.0 L 805.0 860.0 L 804.0 859.0 L 804.0 856.0 L 803.0 855.0 Z M 799.0 872.0 L 799.0 876.0 L 798.0 877.0 L 460.0 877.0 L 458.0 875.0 L 458.0 874.0 L 459.0 873.0 L 459.0 871.0 L 460.0 870.0 L 460.0 868.0 L 461.0 867.0 L 461.0 865.0 L 462.0 864.0 L 462.0 861.0 L 463.0 860.0 L 464.0 855.0 L 466.0 853.0 L 713.0 853.0 L 714.0 852.0 L 717.0 852.0 L 718.0 853.0 L 758.0 853.0 L 759.0 852.0 L 792.0 852.0 L 794.0 854.0 L 794.0 857.0 L 795.0 858.0 L 796.0 865.0 L 797.0 866.0 L 797.0 868.0 L 798.0 869.0 L 798.0 871.0 Z M 306.0 843.0 L 306.0 841.0 L 307.0 840.0 L 308.0 837.0 L 310.0 835.0 L 310.0 834.0 L 311.0 833.0 L 314.0 826.0 L 318.0 822.0 L 382.0 822.0 L 383.0 823.0 L 383.0 825.0 L 381.0 828.0 L 381.0 830.0 L 380.0 831.0 L 380.0 832.0 L 379.0 833.0 L 379.0 834.0 L 378.0 835.0 L 375.0 842.0 L 373.0 844.0 L 307.0 844.0 Z M 226.0 843.0 L 228.0 838.0 L 232.0 833.0 L 232.0 832.0 L 235.0 828.0 L 236.0 825.0 L 239.0 822.0 L 301.0 822.0 L 302.0 823.0 L 304.0 823.0 L 305.0 824.0 L 304.0 825.0 L 303.0 825.0 L 303.0 828.0 L 302.0 829.0 L 300.0 834.0 L 298.0 836.0 L 296.0 841.0 L 292.0 844.0 L 227.0 844.0 Z M 714.0 823.0 L 716.0 821.0 L 782.0 821.0 L 785.0 824.0 L 785.0 827.0 L 786.0 828.0 L 786.0 830.0 L 787.0 831.0 L 787.0 834.0 L 788.0 835.0 L 788.0 837.0 L 789.0 838.0 L 789.0 842.0 L 788.0 843.0 L 719.0 843.0 L 716.0 840.0 L 716.0 833.0 L 715.0 832.0 L 715.0 826.0 L 714.0 825.0 Z M 633.0 823.0 L 635.0 821.0 L 703.0 821.0 L 705.0 823.0 L 705.0 829.0 L 706.0 830.0 L 706.0 835.0 L 707.0 836.0 L 707.0 841.0 L 705.0 843.0 L 658.0 843.0 L 657.0 844.0 L 635.0 844.0 L 633.0 842.0 Z M 551.0 836.0 L 552.0 835.0 L 552.0 830.0 L 553.0 829.0 L 553.0 824.0 L 556.0 821.0 L 622.0 821.0 L 624.0 823.0 L 624.0 842.0 L 622.0 844.0 L 552.0 844.0 L 551.0 843.0 Z M 468.0 842.0 L 468.0 841.0 L 469.0 840.0 L 469.0 838.0 L 470.0 837.0 L 470.0 835.0 L 471.0 834.0 L 471.0 831.0 L 472.0 830.0 L 473.0 825.0 L 476.0 821.0 L 542.0 821.0 L 544.0 823.0 L 544.0 826.0 L 543.0 827.0 L 543.0 832.0 L 542.0 833.0 L 542.0 838.0 L 541.0 839.0 L 541.0 842.0 L 539.0 844.0 L 470.0 844.0 Z M 464.0 823.0 L 464.0 825.0 L 463.0 826.0 L 463.0 828.0 L 462.0 829.0 L 462.0 831.0 L 461.0 832.0 L 461.0 835.0 L 460.0 836.0 L 459.0 841.0 L 456.0 844.0 L 387.0 844.0 L 385.0 842.0 L 386.0 841.0 L 386.0 839.0 L 390.0 832.0 L 390.0 830.0 L 391.0 829.0 L 392.0 826.0 L 396.0 822.0 L 443.0 822.0 L 444.0 821.0 L 462.0 821.0 Z M 952.0 822.0 L 954.0 820.0 L 1015.0 820.0 L 1017.0 822.0 L 1019.0 827.0 L 1023.0 832.0 L 1024.0 835.0 L 1026.0 837.0 L 1026.0 838.0 L 1028.0 841.0 L 1026.0 843.0 L 964.0 843.0 L 961.0 840.0 L 961.0 839.0 L 960.0 838.0 L 957.0 831.0 L 955.0 829.0 Z M 875.0 822.0 L 877.0 820.0 L 940.0 820.0 L 942.0 822.0 L 942.0 823.0 L 943.0 824.0 L 943.0 825.0 L 944.0 826.0 L 944.0 827.0 L 945.0 828.0 L 945.0 829.0 L 946.0 830.0 L 949.0 837.0 L 952.0 841.0 L 950.0 843.0 L 885.0 843.0 L 882.0 840.0 L 882.0 838.0 L 877.0 829.0 L 877.0 827.0 L 875.0 824.0 Z M 794.0 823.0 L 797.0 820.0 L 863.0 820.0 L 865.0 822.0 L 865.0 824.0 L 867.0 827.0 L 867.0 829.0 L 868.0 830.0 L 868.0 831.0 L 870.0 834.0 L 870.0 836.0 L 873.0 841.0 L 871.0 843.0 L 801.0 843.0 L 799.0 841.0 L 799.0 839.0 L 798.0 838.0 L 798.0 836.0 L 797.0 835.0 L 797.0 832.0 L 796.0 831.0 L 796.0 829.0 L 795.0 828.0 L 795.0 825.0 L 794.0 824.0 Z M 323.0 812.0 L 323.0 811.0 L 324.0 810.0 L 324.0 809.0 L 325.0 808.0 L 325.0 807.0 L 326.0 806.0 L 329.0 799.0 L 333.0 794.0 L 394.0 794.0 L 396.0 796.0 L 393.0 801.0 L 393.0 803.0 L 392.0 804.0 L 389.0 811.0 L 386.0 813.0 L 324.0 813.0 Z M 245.0 812.0 L 245.0 811.0 L 247.0 809.0 L 248.0 806.0 L 250.0 804.0 L 250.0 803.0 L 252.0 801.0 L 252.0 800.0 L 254.0 798.0 L 254.0 797.0 L 258.0 794.0 L 319.0 794.0 L 321.0 796.0 L 318.0 800.0 L 318.0 801.0 L 317.0 802.0 L 316.0 805.0 L 314.0 807.0 L 313.0 810.0 L 310.0 813.0 L 246.0 813.0 Z M 478.0 810.0 L 478.0 809.0 L 479.0 808.0 L 479.0 806.0 L 480.0 805.0 L 480.0 802.0 L 481.0 801.0 L 481.0 798.0 L 482.0 797.0 L 482.0 795.0 L 484.0 793.0 L 547.0 793.0 L 549.0 795.0 L 548.0 796.0 L 548.0 802.0 L 547.0 803.0 L 547.0 808.0 L 544.0 812.0 L 480.0 812.0 Z M 399.0 811.0 L 399.0 810.0 L 401.0 807.0 L 401.0 805.0 L 404.0 800.0 L 404.0 798.0 L 405.0 797.0 L 405.0 796.0 L 408.0 793.0 L 471.0 793.0 L 473.0 795.0 L 472.0 796.0 L 472.0 798.0 L 471.0 799.0 L 471.0 802.0 L 470.0 803.0 L 470.0 805.0 L 469.0 806.0 L 469.0 809.0 L 466.0 812.0 L 445.0 812.0 L 444.0 813.0 L 433.0 813.0 L 432.0 812.0 L 422.0 812.0 L 421.0 813.0 L 401.0 813.0 Z M 937.0 794.0 L 939.0 792.0 L 997.0 792.0 L 1001.0 796.0 L 1001.0 797.0 L 1003.0 799.0 L 1003.0 800.0 L 1005.0 802.0 L 1005.0 803.0 L 1007.0 805.0 L 1007.0 806.0 L 1009.0 809.0 L 1007.0 811.0 L 947.0 811.0 L 944.0 808.0 L 943.0 805.0 L 941.0 803.0 L 941.0 801.0 L 939.0 799.0 L 939.0 798.0 L 938.0 797.0 L 938.0 795.0 Z M 862.0 793.0 L 863.0 792.0 L 924.0 792.0 L 927.0 795.0 L 928.0 798.0 L 930.0 800.0 L 930.0 801.0 L 934.0 808.0 L 934.0 810.0 L 933.0 811.0 L 871.0 811.0 L 868.0 808.0 L 868.0 806.0 L 862.0 795.0 Z M 786.0 793.0 L 787.0 792.0 L 850.0 792.0 L 853.0 795.0 L 853.0 797.0 L 854.0 798.0 L 854.0 799.0 L 857.0 804.0 L 857.0 806.0 L 859.0 809.0 L 857.0 811.0 L 837.0 811.0 L 836.0 812.0 L 830.0 812.0 L 829.0 811.0 L 801.0 811.0 L 800.0 812.0 L 794.0 812.0 L 793.0 811.0 L 792.0 811.0 L 789.0 807.0 L 789.0 805.0 L 788.0 804.0 L 788.0 801.0 L 787.0 800.0 L 787.0 798.0 L 786.0 797.0 Z M 710.0 793.0 L 711.0 792.0 L 774.0 792.0 L 777.0 796.0 L 777.0 799.0 L 778.0 800.0 L 778.0 803.0 L 779.0 804.0 L 779.0 807.0 L 780.0 808.0 L 780.0 809.0 L 778.0 811.0 L 763.0 811.0 L 762.0 812.0 L 731.0 812.0 L 730.0 811.0 L 725.0 811.0 L 724.0 812.0 L 714.0 812.0 L 712.0 810.0 L 712.0 807.0 L 711.0 806.0 L 711.0 801.0 L 710.0 800.0 Z M 633.0 794.0 L 635.0 792.0 L 698.0 792.0 L 700.0 794.0 L 700.0 797.0 L 701.0 798.0 L 701.0 803.0 L 702.0 804.0 L 702.0 810.0 L 700.0 812.0 L 635.0 812.0 L 633.0 810.0 Z M 624.0 794.0 L 624.0 810.0 L 622.0 812.0 L 558.0 812.0 L 556.0 810.0 L 556.0 805.0 L 557.0 804.0 L 557.0 799.0 L 558.0 798.0 L 558.0 795.0 L 560.0 793.0 L 598.0 793.0 L 599.0 792.0 L 622.0 792.0 Z M 338.0 670.0 L 339.0 673.0 L 343.0 676.0 L 505.0 676.0 L 509.0 672.0 L 509.0 668.0 L 505.0 665.0 L 343.0 665.0 L 342.0 666.0 L 341.0 666.0 Z M 338.0 618.0 L 339.0 621.0 L 343.0 624.0 L 678.0 624.0 L 679.0 623.0 L 681.0 623.0 L 683.0 620.0 L 683.0 616.0 L 679.0 613.0 L 342.0 613.0 L 339.0 616.0 L 339.0 617.0 Z M 732.0 564.0 L 732.0 569.0 L 736.0 572.0 L 831.0 572.0 L 834.0 570.0 L 834.0 568.0 L 835.0 567.0 L 835.0 566.0 L 834.0 565.0 L 834.0 563.0 L 831.0 561.0 L 736.0 561.0 Z M 338.0 566.0 L 339.0 569.0 L 343.0 572.0 L 704.0 572.0 L 706.0 571.0 L 708.0 568.0 L 708.0 564.0 L 704.0 561.0 L 342.0 561.0 L 339.0 564.0 Z M 338.0 514.0 L 339.0 517.0 L 342.0 520.0 L 759.0 520.0 L 763.0 517.0 L 763.0 512.0 L 760.0 509.0 L 342.0 509.0 Z M 338.0 461.0 L 339.0 465.0 L 342.0 468.0 L 896.0 468.0 L 898.0 467.0 L 900.0 464.0 L 900.0 460.0 L 896.0 457.0 L 343.0 457.0 Z M 553.0 404.0 L 553.0 408.0 L 557.0 411.0 L 670.0 411.0 L 673.0 408.0 L 673.0 407.0 L 674.0 406.0 L 673.0 403.0 L 671.0 401.0 L 609.0 401.0 L 608.0 400.0 L 606.0 400.0 L 605.0 401.0 L 569.0 401.0 L 568.0 400.0 L 563.0 400.0 L 562.0 401.0 L 556.0 401.0 Z M 553.0 352.0 L 553.0 356.0 L 556.0 359.0 L 739.0 359.0 L 742.0 356.0 L 742.0 353.0 L 741.0 352.0 L 741.0 351.0 L 737.0 348.0 L 558.0 348.0 L 557.0 349.0 L 556.0 349.0 Z M 461.0 333.0 L 460.0 334.0 L 459.0 334.0 L 456.0 338.0 L 456.0 340.0 L 457.0 341.0 L 457.0 342.0 L 467.0 351.0 L 468.0 351.0 L 472.0 355.0 L 473.0 355.0 L 478.0 360.0 L 479.0 360.0 L 483.0 364.0 L 484.0 364.0 L 491.0 371.0 L 491.0 372.0 L 488.0 375.0 L 487.0 375.0 L 482.0 380.0 L 481.0 380.0 L 476.0 385.0 L 475.0 385.0 L 471.0 389.0 L 470.0 389.0 L 464.0 395.0 L 463.0 395.0 L 459.0 399.0 L 458.0 399.0 L 457.0 400.0 L 457.0 401.0 L 456.0 402.0 L 456.0 405.0 L 459.0 408.0 L 460.0 408.0 L 461.0 409.0 L 463.0 409.0 L 464.0 408.0 L 465.0 408.0 L 475.0 399.0 L 476.0 399.0 L 487.0 389.0 L 488.0 389.0 L 492.0 385.0 L 493.0 385.0 L 498.0 380.0 L 499.0 380.0 L 503.0 376.0 L 504.0 376.0 L 506.0 373.0 L 506.0 370.0 L 505.0 369.0 L 505.0 368.0 L 501.0 364.0 L 500.0 364.0 L 495.0 359.0 L 494.0 359.0 L 490.0 355.0 L 489.0 355.0 L 484.0 350.0 L 483.0 350.0 L 478.0 345.0 L 477.0 345.0 L 466.0 335.0 Z M 364.0 333.0 L 363.0 334.0 L 360.0 335.0 L 350.0 344.0 L 349.0 344.0 L 345.0 348.0 L 344.0 348.0 L 340.0 352.0 L 339.0 352.0 L 335.0 356.0 L 334.0 356.0 L 329.0 361.0 L 328.0 361.0 L 325.0 364.0 L 324.0 364.0 L 320.0 368.0 L 320.0 369.0 L 319.0 370.0 L 319.0 372.0 L 320.0 373.0 L 320.0 374.0 L 325.0 379.0 L 326.0 379.0 L 331.0 384.0 L 332.0 384.0 L 336.0 388.0 L 337.0 388.0 L 341.0 392.0 L 342.0 392.0 L 346.0 396.0 L 347.0 396.0 L 351.0 400.0 L 352.0 400.0 L 357.0 405.0 L 358.0 405.0 L 361.0 408.0 L 362.0 408.0 L 363.0 409.0 L 366.0 409.0 L 369.0 406.0 L 369.0 405.0 L 370.0 404.0 L 369.0 401.0 L 364.0 396.0 L 363.0 396.0 L 359.0 392.0 L 358.0 392.0 L 354.0 388.0 L 353.0 388.0 L 349.0 384.0 L 348.0 384.0 L 343.0 379.0 L 342.0 379.0 L 334.0 372.0 L 334.0 371.0 L 335.0 370.0 L 336.0 370.0 L 336.0 369.0 L 339.0 366.0 L 340.0 366.0 L 350.0 357.0 L 351.0 357.0 L 354.0 354.0 L 355.0 354.0 L 359.0 350.0 L 360.0 350.0 L 366.0 344.0 L 367.0 344.0 L 369.0 342.0 L 369.0 341.0 L 370.0 340.0 L 370.0 339.0 L 369.0 338.0 L 369.0 336.0 L 367.0 334.0 Z M 437.0 313.0 L 433.0 313.0 L 430.0 316.0 L 430.0 317.0 L 427.0 322.0 L 427.0 324.0 L 426.0 325.0 L 426.0 326.0 L 424.0 329.0 L 424.0 331.0 L 420.0 338.0 L 420.0 340.0 L 419.0 341.0 L 419.0 342.0 L 418.0 343.0 L 418.0 345.0 L 414.0 352.0 L 414.0 354.0 L 411.0 359.0 L 411.0 361.0 L 408.0 366.0 L 408.0 368.0 L 403.0 377.0 L 403.0 379.0 L 401.0 382.0 L 401.0 384.0 L 396.0 393.0 L 396.0 395.0 L 392.0 402.0 L 392.0 404.0 L 389.0 409.0 L 389.0 411.0 L 385.0 418.0 L 384.0 423.0 L 385.0 424.0 L 385.0 425.0 L 388.0 427.0 L 392.0 427.0 L 395.0 424.0 L 395.0 423.0 L 396.0 422.0 L 396.0 420.0 L 400.0 413.0 L 400.0 411.0 L 403.0 406.0 L 403.0 404.0 L 406.0 399.0 L 406.0 397.0 L 410.0 390.0 L 410.0 388.0 L 411.0 387.0 L 411.0 386.0 L 414.0 381.0 L 414.0 379.0 L 418.0 372.0 L 418.0 370.0 L 421.0 365.0 L 421.0 363.0 L 424.0 358.0 L 424.0 356.0 L 427.0 351.0 L 427.0 349.0 L 431.0 342.0 L 431.0 340.0 L 434.0 335.0 L 434.0 333.0 L 438.0 326.0 L 438.0 324.0 L 440.0 321.0 L 440.0 316.0 Z M 255.0 269.0 L 252.0 278.0 L 252.0 709.0 L 255.0 717.0 L 261.0 723.0 L 267.0 725.0 L 987.0 725.0 L 994.0 723.0 L 1001.0 716.0 L 1003.0 710.0 L 1003.0 275.0 L 1000.0 268.0 L 994.0 263.0 L 988.0 261.0 L 268.0 261.0 L 260.0 264.0 Z M 264.0 275.0 L 267.0 272.0 L 990.0 273.0 L 993.0 278.0 L 992.0 711.0 L 988.0 714.0 L 267.0 714.0 L 263.0 709.0 Z M 625.0 231.0 L 624.0 232.0 L 623.0 232.0 L 619.0 236.0 L 619.0 238.0 L 618.0 239.0 L 618.0 241.0 L 619.0 242.0 L 619.0 245.0 L 623.0 249.0 L 624.0 249.0 L 625.0 250.0 L 631.0 250.0 L 632.0 249.0 L 633.0 249.0 L 637.0 245.0 L 637.0 243.0 L 638.0 242.0 L 638.0 239.0 L 637.0 238.0 L 637.0 236.0 L 636.0 235.0 L 636.0 234.0 L 634.0 232.0 L 633.0 232.0 L 632.0 231.0 Z M 218.0 227.0 L 210.0 245.0 L 209.0 740.0 L 217.0 760.0 L 202.0 775.0 L 94.0 953.0 L 93.0 998.0 L 98.0 1010.0 L 110.0 1024.0 L 138.0 1036.0 L 1115.0 1036.0 L 1134.0 1030.0 L 1151.0 1016.0 L 1161.0 993.0 L 1160.0 956.0 L 1049.0 768.0 L 1039.0 759.0 L 1047.0 736.0 L 1048.0 250.0 L 1042.0 231.0 L 1032.0 219.0 L 1008.0 208.0 L 250.0 208.0 L 234.0 213.0 Z M 103.0 986.0 L 105.0 984.0 L 113.0 989.0 L 125.0 992.0 L 524.0 992.0 L 529.0 1001.0 L 535.0 1007.0 L 540.0 1009.0 L 704.0 1009.0 L 714.0 1003.0 L 720.0 992.0 L 1126.0 992.0 L 1139.0 989.0 L 1148.0 984.0 L 1150.0 986.0 L 1150.0 995.0 L 1143.0 1009.0 L 1135.0 1017.0 L 1124.0 1023.0 L 1112.0 1026.0 L 141.0 1026.0 L 121.0 1019.0 L 110.0 1009.0 L 104.0 998.0 Z M 103.0 960.0 L 212.0 779.0 L 219.0 771.0 L 224.0 769.0 L 1031.0 768.0 L 1041.0 775.0 L 1149.0 957.0 L 1150.0 964.0 L 1143.0 975.0 L 1129.0 981.0 L 725.0 981.0 L 712.0 984.0 L 707.0 995.0 L 702.0 999.0 L 542.0 999.0 L 538.0 996.0 L 534.0 986.0 L 529.0 982.0 L 129.0 982.0 L 111.0 976.0 L 105.0 970.0 Z M 225.0 236.0 L 238.0 223.0 L 253.0 218.0 L 1004.0 218.0 L 1021.0 224.0 L 1031.0 234.0 L 1037.0 248.0 L 1036.0 740.0 L 1032.0 750.0 L 1025.0 757.0 L 231.0 758.0 L 224.0 751.0 L 220.0 742.0 L 220.0 251.0 Z" fill="#000000" fill-rule="evenodd" stroke="none"/>
</svg>