<svg xmlns="http://www.w3.org/2000/svg" viewBox="0 0 1254 1254" width="1254" height="1254" role="img">
  <path d="M 604.0 85.0 L 597.0 88.0 L 591.0 94.0 L 588.0 101.0 L 588.0 151.0 L 580.0 156.0 L 573.0 164.0 L 571.0 170.0 L 571.0 198.0 L 561.0 204.0 L 551.0 214.0 L 546.0 222.0 L 542.0 238.0 L 542.0 505.0 L 546.0 516.0 L 551.0 522.0 L 557.0 526.0 L 569.0 528.0 L 571.0 530.0 L 571.0 830.0 L 574.0 899.0 L 586.0 1025.0 L 603.0 1109.0 L 610.0 1117.0 L 613.0 1138.0 L 618.0 1143.0 L 627.0 1145.0 L 636.0 1139.0 L 638.0 1135.0 L 639.0 1118.0 L 646.0 1111.0 L 663.0 1029.0 L 671.0 961.0 L 677.0 877.0 L 679.0 816.0 L 679.0 172.0 L 674.0 160.0 L 662.0 152.0 L 662.0 103.0 L 658.0 93.0 L 646.0 85.0 Z M 621.0 1116.0 L 629.0 1116.0 L 631.0 1118.0 L 631.0 1120.0 L 630.0 1121.0 L 630.0 1128.0 L 629.0 1129.0 L 629.0 1132.0 L 627.0 1134.0 L 623.0 1134.0 L 620.0 1130.0 L 620.0 1123.0 L 619.0 1122.0 L 619.0 1118.0 Z M 600.0 1021.0 L 649.0 1021.0 L 650.0 1022.0 L 652.0 1022.0 L 653.0 1023.0 L 653.0 1026.0 L 652.0 1027.0 L 652.0 1032.0 L 651.0 1033.0 L 651.0 1037.0 L 650.0 1038.0 L 650.0 1042.0 L 649.0 1043.0 L 649.0 1048.0 L 648.0 1049.0 L 648.0 1053.0 L 647.0 1054.0 L 647.0 1058.0 L 646.0 1059.0 L 646.0 1063.0 L 645.0 1064.0 L 645.0 1068.0 L 644.0 1069.0 L 644.0 1073.0 L 643.0 1074.0 L 643.0 1078.0 L 642.0 1079.0 L 642.0 1083.0 L 641.0 1084.0 L 641.0 1088.0 L 640.0 1089.0 L 640.0 1093.0 L 639.0 1094.0 L 639.0 1097.0 L 638.0 1098.0 L 638.0 1102.0 L 635.0 1106.0 L 614.0 1106.0 L 612.0 1104.0 L 612.0 1099.0 L 611.0 1098.0 L 611.0 1094.0 L 610.0 1093.0 L 610.0 1089.0 L 609.0 1088.0 L 609.0 1085.0 L 608.0 1084.0 L 608.0 1080.0 L 607.0 1079.0 L 607.0 1074.0 L 606.0 1073.0 L 606.0 1069.0 L 605.0 1068.0 L 605.0 1065.0 L 604.0 1064.0 L 604.0 1060.0 L 603.0 1059.0 L 603.0 1055.0 L 602.0 1054.0 L 602.0 1050.0 L 601.0 1049.0 L 601.0 1045.0 L 600.0 1044.0 L 600.0 1040.0 L 599.0 1039.0 L 599.0 1035.0 L 598.0 1034.0 L 598.0 1030.0 L 597.0 1029.0 L 597.0 1023.0 Z M 582.0 779.0 L 585.0 779.0 L 586.0 778.0 L 664.0 778.0 L 665.0 779.0 L 667.0 779.0 L 668.0 780.0 L 668.0 846.0 L 667.0 847.0 L 667.0 870.0 L 666.0 871.0 L 666.0 890.0 L 665.0 891.0 L 665.0 907.0 L 664.0 908.0 L 664.0 920.0 L 663.0 921.0 L 663.0 933.0 L 662.0 934.0 L 662.0 944.0 L 661.0 945.0 L 661.0 955.0 L 660.0 956.0 L 660.0 966.0 L 659.0 967.0 L 659.0 977.0 L 658.0 978.0 L 658.0 987.0 L 657.0 988.0 L 657.0 998.0 L 656.0 999.0 L 656.0 1007.0 L 653.0 1010.0 L 652.0 1010.0 L 651.0 1011.0 L 596.0 1011.0 L 594.0 1009.0 L 594.0 1000.0 L 593.0 999.0 L 593.0 990.0 L 592.0 989.0 L 592.0 980.0 L 591.0 979.0 L 591.0 970.0 L 590.0 969.0 L 590.0 959.0 L 589.0 958.0 L 589.0 949.0 L 588.0 948.0 L 588.0 936.0 L 587.0 935.0 L 587.0 925.0 L 586.0 924.0 L 586.0 910.0 L 585.0 909.0 L 585.0 895.0 L 584.0 894.0 L 584.0 878.0 L 583.0 877.0 L 583.0 857.0 L 582.0 856.0 L 582.0 823.0 L 581.0 822.0 L 581.0 780.0 Z M 599.0 207.0 L 601.0 209.0 L 601.0 221.0 L 599.0 223.0 L 591.0 223.0 L 590.0 224.0 L 587.0 224.0 L 586.0 225.0 L 584.0 225.0 L 583.0 226.0 L 582.0 226.0 L 577.0 231.0 L 577.0 232.0 L 575.0 234.0 L 575.0 236.0 L 574.0 237.0 L 574.0 239.0 L 573.0 240.0 L 573.0 488.0 L 581.0 495.0 L 581.0 496.0 L 583.0 499.0 L 583.0 507.0 L 582.0 508.0 L 582.0 510.0 L 576.0 516.0 L 575.0 516.0 L 574.0 517.0 L 572.0 517.0 L 571.0 518.0 L 565.0 518.0 L 564.0 517.0 L 562.0 517.0 L 561.0 516.0 L 560.0 516.0 L 554.0 510.0 L 554.0 508.0 L 553.0 507.0 L 553.0 504.0 L 552.0 503.0 L 552.0 240.0 L 553.0 239.0 L 553.0 233.0 L 554.0 232.0 L 554.0 230.0 L 555.0 229.0 L 555.0 227.0 L 556.0 226.0 L 557.0 223.0 L 559.0 221.0 L 559.0 220.0 L 566.0 213.0 L 567.0 213.0 L 569.0 211.0 L 570.0 211.0 L 575.0 208.0 L 577.0 208.0 L 578.0 207.0 Z M 590.0 162.0 L 660.0 162.0 L 668.0 170.0 L 668.0 765.0 L 666.0 767.0 L 662.0 768.0 L 600.0 768.0 L 599.0 767.0 L 583.0 768.0 L 581.0 766.0 L 581.0 525.0 L 588.0 519.0 L 593.0 510.0 L 592.0 494.0 L 583.0 483.0 L 583.0 241.0 L 588.0 234.0 L 605.0 233.0 L 610.0 228.0 L 610.0 202.0 L 609.0 200.0 L 604.0 197.0 L 583.0 197.0 L 581.0 195.0 L 581.0 172.0 L 584.0 166.0 Z M 602.0 97.0 L 603.0 97.0 L 606.0 95.0 L 644.0 95.0 L 645.0 96.0 L 648.0 97.0 L 650.0 99.0 L 650.0 100.0 L 651.0 101.0 L 651.0 103.0 L 652.0 104.0 L 652.0 149.0 L 650.0 151.0 L 647.0 151.0 L 646.0 152.0 L 602.0 152.0 L 601.0 151.0 L 599.0 151.0 L 598.0 150.0 L 598.0 102.0 L 599.0 101.0 L 599.0 100.0 Z" fill="#000000" fill-rule="evenodd" stroke="none"/>
</svg>