<svg xmlns="http://www.w3.org/2000/svg" viewBox="0 0 716.7 716.7">
  <path d="M558.3,358.3c0,110.5-89.5,200-200,200s-200-89.5-200-200,89.5-200,200-200,200,89.5,200,200Z"/>
  <path fill-rule="evenodd" d="M358.3,0c13.8,0,25,11.2,25,25v33.3c0,13.8-11.2,25-25,25s-25-11.2-25-25V25c0-13.8,11.2-25,25-25ZM105,105c9.8-9.8,25.6-9.8,35.4,0l13.1,13.1c9.8,9.8,9.8,25.6,0,35.4-9.8,9.8-25.6,9.8-35.4,0l-13.1-13.1c-9.8-9.8-9.8-25.6,0-35.4ZM611.7,105c9.8,9.8,9.8,25.6,0,35.4l-13.1,13.1c-9.8,9.8-25.6,9.8-35.4,0-9.8-9.8-9.8-25.6,0-35.4l13.1-13.1c9.8-9.8,25.6-9.8,35.4,0ZM0,358.3c0-13.8,11.2-25,25-25h33.3c13.8,0,25,11.2,25,25s-11.2,25-25,25H25c-13.8,0-25-11.2-25-25ZM633.3,358.3c0-13.8,11.2-25,25-25h33.3c13.8,0,25,11.2,25,25s-11.2,25-25,25h-33.3c-13.8,0-25-11.2-25-25ZM563.3,563.3c9.8-9.8,25.6-9.8,35.4,0l13.1,13.1c9.8,9.8,9.8,25.6,0,35.4-9.8,9.8-25.6,9.8-35.4,0l-13.1-13.1c-9.8-9.8-9.8-25.6,0-35.4ZM153.4,563.3c9.8,9.8,9.8,25.6,0,35.4l-13.1,13.1c-9.8,9.8-25.6,9.8-35.4,0s-9.8-25.6,0-35.4l13.1-13.1c9.8-9.8,25.6-9.8,35.4,0ZM358.3,633.3c13.8,0,25,11.2,25,25v33.3c0,13.8-11.2,25-25,25s-25-11.2-25-25v-33.3c0-13.8,11.2-25,25-25Z"/>
</svg>
